<?xml version="1.0" encoding="UTF-8"?>
<svg version="1.1" xmlns="http://www.w3.org/2000/svg" width="1024" height="1024">
<path d="M0 0 C2.81783334 1.11005556 3.55947926 2.17292598 5.0625 4.8125 C5.28439621 7.455099 5.34182446 9.84881759 5.25 12.48046875 C5.23296021 13.61008781 5.23296021 13.61008781 5.21557617 14.76252747 C5.16704291 17.96528973 5.08413746 21.16687208 5.00097656 24.36889648 C4.58915147 41.73960674 5.27713454 60.8040978 16.875 74.8125 C25.88933527 84.13012132 37.52100704 85.03328148 49.921875 85.3046875 C52.01540068 85.36800029 54.10890596 85.4319906 56.20239258 85.49658203 C57.28324127 85.52737854 58.36408997 85.55817505 59.47769165 85.58990479 C78.71708132 86.15295734 97.54152691 87.25370881 116.53442383 90.47705078 C119.07534027 90.81420377 121.50258288 90.87185205 124.0625 90.8125 C124.0625 91.4725 124.0625 92.1325 124.0625 92.8125 C124.65095703 92.85060791 125.23941406 92.88871582 125.84570312 92.92797852 C132.66733667 93.47666933 138.98975961 94.878007 145.5625 96.75 C147.17306274 97.20644897 147.17306274 97.20644897 148.81616211 97.67211914 C166.11627627 102.72807217 183.18451381 109.13853598 199.05615234 117.72900391 C201.27341365 118.92640056 203.50570804 120.09313805 205.73828125 121.26171875 C228.20964171 133.17302152 248.44324347 147.82833354 267.57177734 164.51708984 C268.80648263 165.59002569 270.05223502 166.65023383 271.30078125 167.70703125 C275.56372777 171.33450749 279.57779951 175.19717406 283.5625 179.125 C284.10406738 179.65351563 284.64563477 180.18203125 285.20361328 180.7265625 C286.52978627 182.0497438 287.80128397 183.4272644 289.0625 184.8125 C289.0625 185.4725 289.0625 186.1325 289.0625 186.8125 C290.0525 187.1425 291.0425 187.4725 292.0625 187.8125 C294.04296875 189.96484375 294.04296875 189.96484375 296.25 192.75 C297.45462891 194.26400391 297.45462891 194.26400391 298.68359375 195.80859375 C299.46863281 196.79988281 300.25367188 197.79117188 301.0625 198.8125 C301.69285156 199.56660156 302.32320312 200.32070313 302.97265625 201.09765625 C314.15786252 214.56264978 323.55630055 229.54539036 332.0625 244.8125 C332.49771973 245.58190918 332.93293945 246.35131836 333.38134766 247.14404297 C340.04626437 259.00370945 345.40421352 271.09447263 350.09545898 283.8684082 C355.94510625 299.53714659 363.20108767 312.10192922 378.640625 319.53515625 C382.02317413 321.03860671 385.4356537 322.46913191 388.85351562 323.89013672 C408.67637035 332.16718636 428.08209962 341.04444245 440.0625 359.8125 C440.82626953 360.94558594 440.82626953 360.94558594 441.60546875 362.1015625 C447.16875589 370.75556472 450.897965 380.44679506 451.0625 390.8125 C449.87890625 392.62109375 449.87890625 392.62109375 448.0625 393.8125 C444.43618083 393.56684612 441.87586246 392.30955484 438.8125 390.4375 C426.79466551 383.5984034 414.96343474 383.26201806 401.51733398 385.03637695 C388.36906213 386.73335769 377.1661216 386.91358801 365.9375 379.0625 C364.98875 378.32 364.04 377.5775 363.0625 376.8125 C362.876875 377.4725 362.69125 378.1325 362.5 378.8125 C357.54347703 389.15654795 348.3104837 393.81219873 337.93896484 397.58496094 C335.7545235 398.33841929 333.56577992 399.07769214 331.375 399.8125 C319.59257939 403.8134824 311.55330978 409.69751728 303.47265625 419.04296875 C297.70410572 425.67165972 297.70410572 425.67165972 294.5 426.375 C292.0625 425.8125 292.0625 425.8125 290.3125 423.5625 C285.15388127 412.2135388 286.81503386 395.56492688 290.73828125 384.04296875 C294.53035499 374.7920986 298.96274643 366.63254564 305.00390625 358.671875 C307.3563552 355.4043368 309.42460458 352.04616209 311.4375 348.5625 C312.40816406 346.88414062 312.40816406 346.88414062 313.3984375 345.171875 C316.58456583 338.73978495 318.45897109 331.99330114 316.55078125 324.9140625 C307.03811919 302.17648001 271.85199149 286.61571709 250.78686523 277.83227539 C226.32282911 267.97071533 200.64030252 262.58241797 174.25 262.5625 C173.44904907 262.56182526 172.64809814 262.56115051 171.82287598 262.56045532 C131.70830238 262.61390279 91.65333312 271.30758411 55.0625 287.8125 C54.13759766 288.22822266 53.21269531 288.64394531 52.25976562 289.07226562 C42.10747367 293.6767807 32.1907542 298.35645136 23.0625 304.8125 C25.09554976 306.96989531 27.09417097 308.58748173 29.625 310.125 C30.33060059 310.55546631 31.03620117 310.98593262 31.76318359 311.42944336 C32.52195801 311.88585205 33.28073242 312.34226074 34.0625 312.8125 C34.84834473 313.29017822 35.63418945 313.76785645 36.44384766 314.26000977 C40.71108198 316.84067856 45.00565345 319.36642789 49.3359375 321.83984375 C50.18929688 322.32775391 51.04265625 322.81566406 51.921875 323.31835938 C53.56669789 324.25442706 55.21501707 325.18438454 56.8671875 326.10742188 C66.18370868 331.39582388 66.18370868 331.39582388 68.0625 336.5625 C68.0625 342.19295006 65.97137293 345.83166559 62.09375 349.85546875 C40.47968488 368.4795882 9.61945395 371.15067638 -17.58203125 369.60546875 C-26.78657701 368.57265289 -35.5864766 365.75975169 -44.40942383 363.02514648 C-45.45251709 362.71262939 -46.49561035 362.4001123 -47.5703125 362.078125 C-48.50762207 361.78711914 -49.44493164 361.49611328 -50.41064453 361.19628906 C-53.3769494 360.74575464 -54.47221045 361.17794286 -56.9375 362.8125 C-58.61576272 364.28693737 -58.61576272 364.28693737 -60.1875 366 C-62.63019202 368.52584749 -65.12314091 370.86422403 -67.8125 373.125 C-71.78223011 376.54401611 -75.18669788 380.33762152 -78.64453125 384.265625 C-80.87626674 386.74448623 -83.18626246 389.0975717 -85.5625 391.4375 C-88.84699354 394.68242132 -91.92733838 398.01836946 -94.9296875 401.5234375 C-97.00809791 403.89298712 -99.14555522 406.1963909 -101.29736328 408.49902344 C-106.1515372 413.6942365 -110.794423 418.9410079 -115.12109375 424.59375 C-117.23958242 427.1814953 -119.56032993 429.45903391 -121.9375 431.8125 C-123.75414124 433.72695835 -125.55407615 435.65644626 -127.35473633 437.5859375 C-149.83679779 461.66823271 -149.83679779 461.66823271 -162.9375 471.8125 C-163.96488281 472.63363281 -164.99226563 473.45476562 -166.05078125 474.30078125 C-183.36125799 488.04418736 -205.38658268 502.1126702 -228.47265625 501.140625 C-233.59868721 500.45823736 -238.13321484 498.95668083 -242.5 496.1875 C-245.37987969 494.56295248 -247.61384063 494.37654803 -250.875 494.21875 C-253.78862815 493.64485355 -255.56912566 492.60788054 -257.9375 490.8125 C-259.484375 488.0703125 -259.484375 488.0703125 -260.6875 484.9375 C-261.09484375 483.90882813 -261.5021875 482.88015625 -261.921875 481.8203125 C-263.41779759 477.39008022 -264.05224564 473.36047433 -264.078125 468.69140625 C-264.27387483 456.58218552 -265.236496 445.09307566 -267.5 433.1875 C-276.48659972 384.11882181 -263.2998973 334.04727829 -241.9375 289.8125 C-241.5986377 289.10448242 -241.25977539 288.39646484 -240.91064453 287.66699219 C-229.58192576 264.10281483 -215.90976333 242.0029848 -199.99609375 221.265625 C-198.85206303 219.77928172 -198.85206303 219.77928172 -197.9375 217.8125 C-197.2775 217.8125 -196.6175 217.8125 -195.9375 217.8125 C-195.61072266 217.02359375 -195.61072266 217.02359375 -195.27734375 216.21875 C-193.42900294 212.89928079 -190.98700132 210.16086382 -188.5 207.3125 C-187.96141357 206.69157471 -187.42282715 206.07064941 -186.86791992 205.4309082 C-174.11362973 190.78750919 -160.9186712 175.90102529 -145.58203125 163.8984375 C-143.14823177 161.97871974 -140.80448245 159.98012874 -138.46826172 157.94360352 C-126.49902688 147.56818802 -113.63870889 138.70009653 -100.0625 130.5625 C-77.74984122 117.18549243 -66.2827237 104.88621915 -58.125 79.8125 C-50.74008889 57.69525891 -41.80711362 35.28626228 -25.9375 17.8125 C-25.32648438 17.10867187 -24.71546875 16.40484375 -24.0859375 15.6796875 C-19.43614854 10.63417182 -7.29463308 -0.70593223 0 0 Z M126.0625 199.8125 C125.19044922 200.46605469 125.19044922 200.46605469 124.30078125 201.1328125 C117.56090467 206.38017562 112.80943504 213.72696527 107.78320312 220.54882812 C93.94776446 239.28742688 77.51938959 247.89942719 56.32421875 256.5703125 C32.18797681 266.45437247 8.51439957 276.73074717 -12.9375 291.8125 C-12.9375 292.1425 -12.9375 292.4725 -12.9375 292.8125 C-10.20857717 293.45937807 -7.47937553 294.10503718 -4.75 294.75 C-3.98107422 294.93240234 -3.21214844 295.11480469 -2.41992188 295.30273438 C-0.92386231 295.65588148 0.57360042 296.00314536 2.07250977 296.34399414 C3.6772175 296.72179246 5.26758995 297.16018702 6.8515625 297.6171875 C9.91485844 297.88779668 10.87996754 296.91243056 13.25 295 C54.90053689 264.00855021 112.68472314 249.93419384 163.6796875 247.90771484 C165.64102116 247.82934188 167.60185763 247.73862458 169.5625 247.64453125 C185.70876259 247.22069186 202.39896347 249.63194357 218.109375 253.26171875 C221.15983416 253.83065359 223.96681492 253.90981944 227.0625 253.8125 C227.3925 253.1525 227.7225 252.4925 228.0625 251.8125 C209.1341421 242.78758674 188.79381921 239.20213318 168.01269531 238.27832031 C162.53413292 237.97948964 158.10289734 236.92030252 153.0625 234.8125 C152.25 232.625 152.25 232.625 152.0625 229.8125 C156.03139425 223.55385906 163.22867639 222.45838205 170.0625 220.8125 C185.15383692 217.52693218 199.94358899 218.49511935 215.0625 220.8125 C216.61324219 221.04646484 216.61324219 221.04646484 218.1953125 221.28515625 C223.38770159 222.14573327 228.1627648 223.45964162 233.12109375 225.20703125 C235.54233949 225.96214813 237.55034138 226.19313009 240.0625 225.8125 C242.34147007 223.94586894 242.34147007 223.94586894 242.3984375 220.9921875 C241.63080385 213.72644572 234.78731054 208.18700953 229.4375 203.6875 C219.30854473 196.0056012 207.93280589 190.27952015 196.0625 185.8125 C194.70705078 185.30009766 194.70705078 185.30009766 193.32421875 184.77734375 C169.42844486 177.34233451 144.76786005 184.29027006 126.0625 199.8125 Z M229.0625 252.8125 C228.4025 253.4725 227.7425 254.1325 227.0625 254.8125 C228.3825 255.1425 229.7025 255.4725 231.0625 255.8125 C231.0625 254.8225 231.0625 253.8325 231.0625 252.8125 C230.4025 252.8125 229.7425 252.8125 229.0625 252.8125 Z M-163.9375 296.8125 C-165.07251953 297.92818359 -165.07251953 297.92818359 -166.23046875 299.06640625 C-180.19801753 313.75881784 -192.00604772 337.38528008 -191.9375 357.8125 C-191.39865386 361.72899143 -190.81495429 364.93504571 -187.9375 367.8125 C-180.98662794 368.94991543 -177.26129679 366.601989 -171.55078125 362.734375 C-167.66060074 359.87852715 -167.66060074 359.87852715 -163.9375 356.8125 C-163.9375 356.1525 -163.9375 355.4925 -163.9375 354.8125 C-163.37546875 354.60109375 -162.8134375 354.3896875 -162.234375 354.171875 C-159.16387224 352.35463867 -157.29542115 349.87210014 -155.1875 347.0625 C-154.75211914 346.48540283 -154.31673828 345.90830566 -153.86816406 345.3137207 C-141.40433392 328.44111792 -130.11286703 305.30186455 -132.9375 283.8125 C-134.16526716 281.4280715 -134.16526716 281.4280715 -135.9375 279.8125 C-146.91483848 277.46021318 -156.94678865 289.88215348 -163.9375 296.8125 Z M-143.9375 369.8125 C-144.56527344 370.28300781 -145.19304687 370.75351562 -145.83984375 371.23828125 C-151.23969202 375.43291175 -156.21413132 381.28037377 -157.3203125 388.2109375 C-157.35898437 388.96632813 -157.39765625 389.72171875 -157.4375 390.5 C-157.72455855 395.76891338 -160.17610151 398.31390664 -163.9375 401.8125 C-165.83356012 403.50984639 -167.75504777 405.17499379 -169.6796875 406.83984375 C-183.97340182 419.32829657 -192.11263112 433.81344517 -200.37475586 450.74926758 C-203.71421112 457.53551535 -207.4324363 463.71741382 -211.9375 469.8125 C-212.58332031 470.70324219 -213.22914063 471.59398437 -213.89453125 472.51171875 C-217.83468211 477.71085273 -221.94797865 481.72880646 -227.25 485.53515625 C-227.806875 485.95667969 -228.36375 486.37820313 -228.9375 486.8125 C-228.9375 487.1425 -228.9375 487.4725 -228.9375 487.8125 C-207.98477559 489.51520447 -188.29984139 475.68481303 -172.9375 462.8125 C-167.75018187 458.33957811 -162.82722387 453.60613035 -157.9375 448.8125 C-157.07850098 447.97396484 -156.21950195 447.13542969 -155.33447266 446.27148438 C-152.54764132 443.54380171 -149.77157255 440.80568131 -147 438.0625 C-146.10442383 437.18013672 -145.20884766 436.29777344 -144.28613281 435.38867188 C-143.46081055 434.56431641 -142.63548828 433.73996094 -141.78515625 432.890625 C-140.6715271 431.78315918 -140.6715271 431.78315918 -139.53540039 430.65332031 C-137.71899288 428.96704151 -137.71899288 428.96704151 -137.9375 426.8125 C-137.2775 426.8125 -136.6175 426.8125 -135.9375 426.8125 C-134.62886629 425.34181586 -133.3928144 423.80648682 -132.1875 422.25 C-127.80070904 416.75236036 -123.1218244 411.62819853 -118.25097656 406.55639648 C-114.95077509 403.08679485 -111.88835854 399.52360139 -108.9140625 395.76953125 C-103.46859218 389.04868053 -97.39430154 383.00357138 -91.25292969 376.92211914 C-89.30339065 374.99097661 -87.36211335 373.05181072 -85.421875 371.11132812 C-84.16453492 369.85890055 -82.90673831 368.60693108 -81.6484375 367.35546875 C-81.07846039 366.78660446 -80.50848328 366.21774017 -79.92123413 365.63163757 C-76.07942829 361.83431285 -72.08218366 358.27613533 -67.9375 354.8125 C-91.35451785 339.20115477 -124.7393392 353.89296249 -143.9375 369.8125 Z " fill="#3164DE" transform="translate(421.9375,197.1875)"/>
<path d="M0 0 C12.36947718 1.84103846 27.67129503 20.73708668 36 30 C36 30.66 36 31.32 36 32 C36.99 32.33 37.98 32.66 39 33 C40.98046875 35.15234375 40.98046875 35.15234375 43.1875 37.9375 C43.99058594 38.94683594 44.79367187 39.95617187 45.62109375 40.99609375 C46.40613281 41.98738281 47.19117188 42.97867188 48 44 C48.63035156 44.75410156 49.26070312 45.50820313 49.91015625 46.28515625 C61.09536252 59.75014978 70.49380055 74.73289036 79 90 C79.43521973 90.76940918 79.87043945 91.53881836 80.31884766 92.33154297 C86.98376437 104.19120945 92.34171352 116.28197263 97.03295898 129.0559082 C100.84956609 139.27898928 105.57619295 148.9013014 113 157 C112.67 157.66 112.34 158.32 112 159 C99.86440711 148.88700593 94.86204564 131.36358945 89.00390625 117.17578125 C88.64111572 116.29833252 88.2783252 115.42088379 87.90454102 114.5168457 C87.00721142 112.02006547 86.44960993 109.61125246 86 107 C85.34 107 84.68 107 84 107 C83.58363281 106.00226563 83.16726563 105.00453125 82.73828125 103.9765625 C76.26988914 88.92765024 67.31010656 75.41443748 58 62 C57.58298828 61.39865234 57.16597656 60.79730469 56.73632812 60.17773438 C47.88199473 47.50388461 37.67369108 36.14229215 27 25 C26.49645996 24.4730957 25.99291992 23.94619141 25.47412109 23.40332031 C19.80943545 17.50864572 13.93936966 12.11956484 7.5078125 7.0703125 C4.83192811 4.86124906 2.41745067 2.48676825 0 0 Z " fill="#3058BF" transform="translate(675,352)"/>
<path d="M0 0 C5.27987025 0.97775375 9.46336932 2.01537455 14 5 C15.65459362 5.70372589 17.30949293 6.40674623 18.96630859 7.10522461 C38.28661246 15.60569444 69.86541293 31.41102178 78.44140625 51.88671875 C80.87342447 61.08757088 78.34449676 68.81839296 74 77 C71.49626234 81.11923137 68.76392039 85.05222425 66 89 C64.19504687 91.65783566 62.40943859 94.3283646 60.625 97 C59.98171753 97.95289917 59.98171753 97.95289917 59.32543945 98.92504883 C57.35027333 101.87026462 55.4707356 104.76761407 54 108 C53.68815003 103.32902984 54.2353845 100.91244611 56.875 97.0625 C57.50792969 96.11890625 58.14085937 95.1753125 58.79296875 94.203125 C59.52128906 93.14609375 60.24960937 92.0890625 61 91 C62.29627444 89.09183536 63.58715511 87.18023045 64.87353516 85.26538086 C65.72544636 83.99922744 66.58287449 82.73676177 67.44677734 81.47875977 C73.03963636 73.22140994 77.26733172 65.29226975 76 55 C71.46003703 37.95767747 47.72965699 25.95031908 33.75 17.8125 C25.62373461 13.16309535 17.27690611 9.30102625 8.57519531 5.8527832 C7.74213867 5.51851318 6.90908203 5.18424316 6.05078125 4.83984375 C5.31512939 4.55488037 4.57947754 4.26991699 3.8215332 3.97631836 C2 3 2 3 0 0 Z " fill="#3158C1" transform="translate(663,469)"/>
<path d="M0 0 C0.99 0.33 1.98 0.66 3 1 C2.00033203 2.05574219 2.00033203 2.05574219 0.98046875 3.1328125 C-6.15721866 10.74809036 -12.67708526 18.70144489 -19 27 C-19.49145508 27.6398584 -19.98291016 28.2797168 -20.48925781 28.93896484 C-40.08067 54.47079559 -55.42918101 81.87603752 -69 111 C-70.21229541 107.54728472 -69.8272488 105.83280886 -68.33203125 102.53515625 C-67.93951172 101.6632666 -67.54699219 100.79137695 -67.14257812 99.89306641 C-66.70365234 98.95897949 -66.26472656 98.02489258 -65.8125 97.0625 C-65.36197266 96.08974121 -64.91144531 95.11698242 -64.44726562 94.11474609 C-59.54880696 83.73651372 -53.91476041 73.82664955 -48 64 C-47.55624023 63.25991699 -47.11248047 62.51983398 -46.65527344 61.75732422 C-39.46531999 49.83312167 -31.53523742 38.49917624 -23.05859375 27.453125 C-21.91456303 25.96678172 -21.91456303 25.96678172 -21 24 C-20.34 24 -19.68 24 -19 24 C-18.72454346 23.40687012 -18.44908691 22.81374023 -18.1652832 22.20263672 C-17.05705101 20.10783873 -15.90806772 18.53616996 -14.35546875 16.7578125 C-13.84306641 16.16613281 -13.33066406 15.57445312 -12.80273438 14.96484375 C-12.26970703 14.35769531 -11.73667969 13.75054687 -11.1875 13.125 C-10.13893712 11.91960633 -9.09075636 10.71388014 -8.04296875 9.5078125 C-7.28185791 8.63431152 -7.28185791 8.63431152 -6.50537109 7.74316406 C-4.30139296 5.19103888 -2.14932034 2.59825416 0 0 Z " fill="#3158BD" transform="translate(245,391)"/>
<path d="M0 0 C2.77120527 1.09168693 3.54991303 2.25306611 5.0625 4.8125 C5.35546875 7.828125 5.35546875 7.828125 5.25 11.0625 C5.20939453 12.67898437 5.20939453 12.67898437 5.16796875 14.328125 C5.13316406 15.14796875 5.09835937 15.9678125 5.0625 16.8125 C4.4025 16.8125 3.7425 16.8125 3.0625 16.8125 C3.0625 22.7525 3.0625 28.6925 3.0625 34.8125 C2.7325 34.8125 2.4025 34.8125 2.0625 34.8125 C2.06773682 33.94447754 2.07297363 33.07645508 2.07836914 32.18212891 C2.09539862 28.96549727 2.10794408 25.74888859 2.11743164 22.53222656 C2.1224643 21.13931523 2.12929098 19.7464092 2.13793945 18.35351562 C2.15005152 16.35288754 2.15520412 14.35222112 2.16015625 12.3515625 C2.16539307 11.14709473 2.17062988 9.94262695 2.17602539 8.70166016 C2.26337891 5.8711323 2.26337891 5.8711323 1.0625 3.8125 C-9.63401351 4.36103915 -17.03748159 13.60403706 -23.9375 20.8125 C-24.76765625 21.60011719 -25.5978125 22.38773438 -26.453125 23.19921875 C-29.20488961 26.0937636 -31.33739491 29.18797216 -33.4375 32.5625 C-34.02277466 33.4911084 -34.02277466 33.4911084 -34.61987305 34.43847656 C-39.09660415 41.59006614 -42.9944061 48.61118621 -46.0234375 56.50390625 C-47.16142944 59.37806537 -48.4986417 62.07866923 -49.9375 64.8125 C-50.2675 64.8125 -50.5975 64.8125 -50.9375 64.8125 C-50.43266082 58.72185959 -48.48567221 54.0231667 -45.8125 48.5625 C-45.20353882 47.30288452 -45.20353882 47.30288452 -44.58227539 46.01782227 C-39.51499166 35.70103571 -33.4418812 26.52632516 -25.9375 17.8125 C-25.34582031 17.12414062 -24.75414062 16.43578125 -24.14453125 15.7265625 C-19.47087724 10.68419804 -7.32342843 -0.70871888 0 0 Z " fill="#3057BE" transform="translate(421.9375,197.1875)"/>
<path d="M0 0 C0.66 0 1.32 0 2 0 C-2.50883581 12.79354396 -16.38625082 18.78312538 -27.28857422 25.34472656 C-39.04638926 32.52264714 -50.23097387 40.41980032 -61 49 C-61.86882812 49.67546875 -62.73765625 50.3509375 -63.6328125 51.046875 C-69.20068993 55.41041531 -74.37649759 60.08065867 -79.45703125 64.99609375 C-82.09760016 67.07691073 -83.69630997 67.67378285 -87 68 C-78.14789895 59.06900322 -68.79441648 50.99234924 -58.80615234 43.37792969 C-57.6285069 42.4794935 -56.45417394 41.57669364 -55.28369141 40.66894531 C-47.29029589 34.48065805 -38.98318389 29.07267948 -30.3125 23.875 C-14.36607343 14.42460682 -14.36607343 14.42460682 -1.3046875 1.43359375 C-0.87414062 0.96050781 -0.44359375 0.48742187 0 0 Z " fill="#3057C0" transform="translate(352,304)"/>
<path d="M0 0 C0.66 0.33 1.32 0.66 2 1 C1.23816406 1.71542969 0.47632813 2.43085938 -0.30859375 3.16796875 C-18.57503061 20.64990271 -32.68508415 44.28609004 -34 70 C-33.6676789 72.97759707 -33.03742924 75.16071999 -32 78 C-31.67 78.99 -31.34 79.98 -31 81 C-28.36 81 -25.72 81 -23 81 C-23 81.33 -23 81.66 -23 82 C-26.12587006 82.49033256 -28.89075563 82.66032447 -32 82 C-35.13704157 79.31417674 -36.59906369 76.00078897 -37.40234375 71.9921875 C-38.66551367 45.41509243 -20.9167308 21.71150009 -4.1015625 3.15234375 C-2 1 -2 1 0 0 Z " fill="#2E57C1" transform="translate(265,485)"/>
<path d="M0 0 C0.99 0.33 1.98 0.66 3 1 C0.53135222 3.47304039 -1.94089368 5.94174891 -4.4296875 8.39453125 C-8.77709583 12.69332638 -12.98720387 17.02702853 -16.95703125 21.67578125 C-19.17517732 24.19929351 -21.46465025 26.64451034 -23.765625 29.09228516 C-28.57617501 34.21026615 -33.15980588 39.3225227 -37.3671875 44.95703125 C-40.27468473 48.59488065 -43.63353113 51.79092448 -47 55 C-47.495 53.515 -47.495 53.515 -48 52 C-47.14277344 51.0821875 -46.28554688 50.164375 -45.40234375 49.21875 C-38.60461092 41.92857202 -31.85571049 34.63162746 -25.4765625 26.96875 C-17.4989001 17.44265167 -8.89307044 8.67227228 0 0 Z " fill="#2E56C0" transform="translate(335,569)"/>
<path d="M0 0 C2.45125548 2.45125548 3.48196328 4.99671265 4.90234375 8.125 C6.00230009 10.31773269 6.00230009 10.31773269 9 12 C10.918125 11.938125 10.918125 11.938125 12.875 11.875 C16.19957168 11.77757665 16.84572897 11.89481521 19.75 13.875 C20.4925 14.57625 21.235 15.2775 22 16 C24.85175812 17.69992244 26.92382982 18.24939776 30.23046875 18.23046875 C31.43606445 18.22756836 31.43606445 18.22756836 32.66601562 18.22460938 C33.49810547 18.21236328 34.33019531 18.20011719 35.1875 18.1875 C36.40663086 18.1865332 36.40663086 18.1865332 37.65039062 18.18554688 C43.16507193 18.14606228 48.52878372 17.68733873 54 17 C54 17.66 54 18.32 54 19 C42.50535941 22.07011068 32.17819657 24.03132677 21 19 C20.154375 18.46375 19.30875 17.9275 18.4375 17.375 C15.98706299 15.9927022 14.73295656 15.75446523 12 15.5 C8.30408798 15.13110483 5.93216414 14.42950743 3 12 C0.34576147 7.881354 -0.3477436 4.86841035 0 0 Z " fill="#3C61C2" transform="translate(161,676)"/>
<path d="M0 0 C2.98622637 0.30891997 3.86118351 0.83246285 5.8125 3.1875 C7.31286344 6.74099236 7.12429299 8.32730956 6 12 C-0.03727997 24.62340357 -16.3662527 29.92235506 -28.71484375 34.32421875 C-36.2796072 36.70649232 -43.08819035 37.52165778 -51 37 C-51 36.67 -51 36.34 -51 36 C-49.76507813 35.79246094 -48.53015625 35.58492187 -47.2578125 35.37109375 C-30.36369701 32.36586629 -11.26404484 27.7892171 1.1875 15.0625 C3.65706771 10.88978215 3.61920664 8.79885148 3 4 C1.66169042 1.5404226 1.66169042 1.5404226 0 0 Z " fill="#335AC1" transform="translate(483,528)"/>
<path d="M0 0 C7.05270177 0.40015329 12.67610477 3.40793552 18.9375 6.5 C20.04689941 7.04100342 21.15629883 7.58200684 22.29931641 8.1394043 C34.98629952 14.38151796 47.19011735 21.21848834 59 29 C58.505 30.485 58.505 30.485 58 32 C56.91203125 31.27554687 55.8240625 30.55109375 54.703125 29.8046875 C46.35035596 24.2899323 38.06264514 19.27894511 29 15 C27.03842456 14.02231113 25.08286911 13.03314032 23.12719727 12.04370117 C15.4952422 8.18576007 7.79315077 4.52293117 0 1 C0 0.67 0 0.34 0 0 Z " fill="#325BC4" transform="translate(595,305)"/>
<path d="M0 0 C0.66 0.33 1.32 0.66 2 1 C-2.51431895 4.21945944 -7.02262768 6.42835089 -12.125 8.5625 C-25.97177222 14.54656113 -39.34510607 21.70265387 -51.58984375 30.5390625 C-54.11065325 32.06707345 -56.09655905 32.61564467 -59 33 C-59.33 32.34 -59.66 31.68 -60 31 C-58.989375 30.525625 -57.97875 30.05125 -56.9375 29.5625 C-51.33199184 26.76975576 -46.03106428 23.46876062 -40.68359375 20.21875 C-33.32794916 15.78151226 -25.85336517 11.90987008 -18.10107422 8.19897461 C-16.23894007 7.30720343 -14.3791259 6.41072469 -12.51953125 5.51367188 C-3.39750582 1.13250194 -3.39750582 1.13250194 0 0 Z " fill="#3059C4" transform="translate(465,457)"/>
<path d="M0 0 C1 3 1 3 0.23071289 5.16967773 C-0.1844458 5.99927002 -0.59960449 6.8288623 -1.02734375 7.68359375 C-1.48584717 8.6055957 -1.94435059 9.52759766 -2.41674805 10.47753906 C-3.16952026 11.94271973 -3.16952026 11.94271973 -3.9375 13.4375 C-4.44385986 14.43362305 -4.95021973 15.42974609 -5.47192383 16.45605469 C-9.19847756 23.68166732 -13.14115482 30.4677766 -18 37 C-18.62132812 37.8765625 -19.24265625 38.753125 -19.8828125 39.65625 C-24.56533357 45.95016496 -30.03806267 51.25472515 -37 55 C-37.99 54.67 -38.98 54.34 -40 54 C-39.29875 53.52691406 -38.5975 53.05382812 -37.875 52.56640625 C-22.981603 42.18554666 -15.08746272 28.22410597 -6.83203125 12.48046875 C-4.62192596 8.28173994 -2.32981996 4.13319021 0 0 Z " fill="#2F56BF" transform="translate(229,630)"/>
<path d="M0 0 C-0.639375 0.268125 -1.27875 0.53625 -1.9375 0.8125 C-4.33131686 1.88667752 -4.33131686 1.88667752 -5 5 C-5.99 5 -6.98 5 -8 5 C-7.65555119 7.47266765 -7.65555119 7.47266765 -7 10 C-4.41979574 11.29010213 -2.31655372 11.27907371 0.56640625 11.46484375 C1.69240234 11.54283203 2.81839844 11.62082031 3.97851562 11.70117188 C6.34035764 11.85691187 8.7023355 12.01060713 11.06445312 12.16210938 C17.57376268 12.61676302 23.67436184 13.38652346 30 15 C30 15.33 30 15.66 30 16 C1.14958356 16.45157174 1.14958356 16.45157174 -9 12 C-9.66 11.34 -10.32 10.68 -11 10 C-10.91565099 6.11994547 -10.44278268 4.46738172 -7.75 1.625 C-4.80867557 -0.11305534 -3.3450389 -0.38229016 0 0 Z " fill="#325AC4" transform="translate(584,421)"/>
<path d="M0 0 C0.33 0 0.66 0 1 0 C1.6490968 3.18684428 2.29367948 6.37458595 2.9375 9.5625 C3.11990234 10.45775391 3.30230469 11.35300781 3.49023438 12.27539062 C5.3747037 21.62921108 6.13305062 30.39145897 6.0625 39.9375 C6.05798828 41.09830078 6.05347656 42.25910156 6.04882812 43.45507812 C6.03710647 46.30343934 6.0206976 49.15169222 6 52 C5.67 50.68 5.34 49.36 5 48 C4.34 48 3.68 48 3 48 C2.98018066 47.26998779 2.96036133 46.53997559 2.93994141 45.7878418 C2.84359435 42.42075166 2.73436734 39.05419141 2.625 35.6875 C2.5940625 34.53958984 2.563125 33.39167969 2.53125 32.20898438 C2.3123533 25.769773 1.70088472 19.67560213 0.43212891 13.36010742 C-0.09454772 10.48361988 -0.20084847 7.73266613 -0.125 4.8125 C-0.10695312 3.89082031 -0.08890625 2.96914063 -0.0703125 2.01953125 C-0.04710937 1.35308594 -0.02390625 0.68664062 0 0 Z " fill="#355BC0" transform="translate(155,623)"/>
<path d="M0 0 C7.36317318 1.08331743 13.33020119 8.91521239 17.75 14.4375 C25.79766402 25.38232306 31.0856385 36.2845775 32 50 C31.01 50 30.02 50 29 50 C28.9175 48.741875 28.835 47.48375 28.75 46.1875 C26.49736754 26.7052733 13.21421786 13.14161227 0 0 Z " fill="#3157B8" transform="translate(841,538)"/>
<path d="M0 0 C0.33 0 0.66 0 1 0 C1.15855469 1.08796875 1.31710937 2.1759375 1.48046875 3.296875 C3.5504224 16.67901079 6.36402577 28.70834965 17 38 C22.12824458 41.46612578 28.12344297 43.20438535 34 45 C34 45.33 34 45.66 34 46 C24.57129056 45.54377212 16.24596501 42.44908145 9.66796875 35.43359375 C3.994753 27.15627897 -0.15400106 16.78611592 -0.0625 6.8125 C-0.05347656 5.54019531 -0.04445313 4.26789063 -0.03515625 2.95703125 C-0.02355469 1.98121094 -0.01195312 1.00539062 0 0 Z " fill="#2D56C0" transform="translate(426,238)"/>
<path d="M0 0 C-2.71059467 1.80706311 -3.89501571 2.35430952 -6.93359375 2.96875 C-8.12831299 3.21625 -8.12831299 3.21625 -9.34716797 3.46875 C-10.22260254 3.6440625 -11.09803711 3.819375 -12 4 C-13.94930954 4.40581414 -15.89852402 4.81208509 -17.84765625 5.21875 C-20.96639716 5.86264458 -24.08549757 6.50471672 -27.20507812 7.14453125 C-31.66013601 8.06548805 -36.09401159 8.99825218 -40.49609375 10.1484375 C-44.22952537 11.05578209 -47.18749512 11.15885437 -51 11 C-48.42193778 8.42193778 -46.45662775 8.19569175 -42.91796875 7.34375 C-41.67466797 7.04339844 -40.43136719 6.74304688 -39.15039062 6.43359375 C-38.4978833 6.28003418 -37.84537598 6.12647461 -37.1730957 5.96826172 C-35.23102201 5.51026377 -33.29221379 5.03848863 -31.35351562 4.56640625 C-10.24111222 -0.4763308 -10.24111222 -0.4763308 0 0 Z " fill="#325AC5" transform="translate(563,459)"/>
<path d="M0 0 C0.66 0 1.32 0 2 0 C-2.18255094 11.8915664 -15.45536506 18.89430113 -26.28515625 24.125 C-27.70709892 24.77924148 -29.13283265 25.42531546 -30.5625 26.0625 C-31.22894531 26.36164307 -31.89539063 26.66078613 -32.58203125 26.96899414 C-36.18033643 28.49708538 -39.08369439 29.35329436 -43 29 C-39.6451407 26.14122265 -36.01912506 24.74606406 -31.9375 23.25 C-20.33905628 18.77436855 -8.80327966 11.95213557 -1.34375 1.73046875 C-0.67859375 0.87388672 -0.67859375 0.87388672 0 0 Z " fill="#3159C3" transform="translate(523,423)"/>
<path d="M0 0 C2.89888353 0.99390293 4.9476274 1.95612026 7.3125 3.9375 C10.72534458 6.55665979 13.93426732 7.62178553 18 9 C18 9.33 18 9.66 18 10 C10.62628201 9.96586242 6.46691762 7.87106829 1 3 C0.814375 3.66 0.62875 4.32 0.4375 5 C-3.79905231 13.84150048 -10.88562477 18.7218051 -20 22 C-22.8671875 22.15625 -22.8671875 22.15625 -25 22 C-25 21.34 -25 20.68 -25 20 C-23.824375 19.7525 -22.64875 19.505 -21.4375 19.25 C-17.08923261 18.18417247 -13.82266141 16.29359685 -10 14 C-9.34 14 -8.68 14 -8 14 C-8 13.34 -8 12.68 -8 12 C-7.4225 11.46375 -6.845 10.9275 -6.25 10.375 C-3.31396614 7.27585315 -1.75904359 3.85492532 0 0 Z " fill="#2E56C1" transform="translate(784,571)"/>
<path d="M0 0 C2.50010248 1.29854461 3.46612165 2.45706725 4.8125 4.94140625 C5.10546875 7.95703125 5.10546875 7.95703125 5 11.19140625 C4.97292969 12.2690625 4.94585937 13.34671875 4.91796875 14.45703125 C4.88316406 15.276875 4.84835937 16.09671875 4.8125 16.94140625 C4.1525 16.94140625 3.4925 16.94140625 2.8125 16.94140625 C2.8125 22.88140625 2.8125 28.82140625 2.8125 34.94140625 C2.4825 34.94140625 2.1525 34.94140625 1.8125 34.94140625 C1.81773682 34.07338379 1.82297363 33.20536133 1.82836914 32.31103516 C1.84539862 29.09440352 1.85794408 25.87779484 1.86743164 22.66113281 C1.8724643 21.26822148 1.87929098 19.87531545 1.88793945 18.48242188 C1.90005152 16.48179379 1.90520412 14.48112737 1.91015625 12.48046875 C1.91539307 11.27600098 1.92062988 10.0715332 1.92602539 8.83056641 C2.01337891 6.00003855 2.01337891 6.00003855 0.8125 3.94140625 C-4.56304473 4.21707521 -7.7945933 6.43805007 -12.0390625 9.46875 C-14.03134149 10.83436669 -16.00355481 11.91860839 -18.1875 12.94140625 C-15.13896351 6.69190644 -7.27353214 -0.19482675 0 0 Z " fill="#2C53B8" transform="translate(422.1875,197.05859375)"/>
<path d="M0 0 C0 0.33 0 0.66 0 1 C-0.89195068 1.01981934 -1.78390137 1.03963867 -2.70288086 1.06005859 C-6.05225032 1.13874454 -9.4012218 1.2254533 -12.75024414 1.31738281 C-14.1922218 1.35536771 -15.63428442 1.39027024 -17.07641602 1.421875 C-26.73952112 1.56342996 -26.73952112 1.56342996 -36.25390625 3.1015625 C-39.77113432 3.94511042 -40.76796872 4.01791335 -44 3 C-31.60959964 -3.3392746 -13.23355456 -4.41118485 0 0 Z " fill="#2C57C5" transform="translate(629,417)"/>
<path d="M0 0 C9.41150671 2.76975272 19.84110524 9.20878261 27 16 C27 16.66 27 17.32 27 18 C27.5775 18.226875 28.155 18.45375 28.75 18.6875 C31.5663661 20.33038023 33.08077114 22.39533227 35 25 C34.67 25.66 34.34 26.32 34 27 C33.28714844 26.27425781 32.57429687 25.54851562 31.83984375 24.80078125 C23.89062338 16.96090366 15.74520873 10.93083053 5.93359375 5.69140625 C3.48952392 4.28224216 1.77121448 3.16201625 0 1 C0 0.67 0 0.34 0 0 Z " fill="#3159C2" transform="translate(629,386)"/>
<path d="M0 0 C-1.13329139 3.39987416 -1.74068599 3.78978815 -4.61328125 5.70703125 C-5.36134033 6.20879883 -6.10939941 6.71056641 -6.88012695 7.22753906 C-7.68281006 7.75057617 -8.48549316 8.27361328 -9.3125 8.8125 C-10.12614014 9.34713867 -10.93978027 9.88177734 -11.77807617 10.43261719 C-28.79646911 21.4655783 -28.79646911 21.4655783 -36 21 C-32.53173182 18.12151347 -28.67169406 16.34046151 -24.625 14.4375 C-18.03663476 11.26560546 -12.16827748 7.56152851 -6.34228516 3.15014648 C-2.17135519 0 -2.17135519 0 0 0 Z " fill="#3158BE" transform="translate(254,671)"/>
<path d="M0 0 C6.34532927 0.4903209 11.24963364 2.08088797 17 4.75 C17.75539063 5.08515625 18.51078125 5.4203125 19.2890625 5.765625 C30.18685256 10.70895245 30.18685256 10.70895245 34 14 C34 14.99 34 15.98 34 17 C33.49855469 16.6596875 32.99710938 16.319375 32.48046875 15.96875 C22.39347827 9.50757722 11.08967322 5.40887617 0 1 C0 0.67 0 0.34 0 0 Z " fill="#3059C2" transform="translate(805,521)"/>
<path d="M0 0 C-1.06476563 0.03738281 -2.12953125 0.07476563 -3.2265625 0.11328125 C-11.71345456 0.47599415 -19.59422449 1.2895798 -27.8515625 3.37890625 C-31.30116074 4.05941012 -34.49264057 4.10159857 -38 4 C-30.94578673 -3.05421327 -8.15766996 -5.03559874 0 0 Z " fill="#3158C4" transform="translate(342,546)"/>
<path d="M0 0 C-0.9977758 2.99332739 -1.7522025 3.94766315 -4 6 C-2.89140625 6.67546875 -1.7828125 7.3509375 -0.640625 8.046875 C0.82309552 8.94762609 2.2866273 9.84868394 3.75 10.75 C4.47960937 11.1934375 5.20921875 11.636875 5.9609375 12.09375 C9.73342242 14.42583159 13.02647447 16.65087124 16 20 C11.99936286 20 10.23367653 18.46030615 6.875 16.3125 C1.67566667 13.02486876 -3.5811566 9.9124533 -9 7 C-7.68534669 3.05604006 -4.38536841 0 0 0 Z " fill="#2F59C5" transform="translate(449,497)"/>
<path d="M0 0 C0 0.33 0 0.66 0 1 C-1.68740514 1.02746229 -3.3749463 1.04660111 -5.0625 1.0625 C-6.00222656 1.07410156 -6.94195313 1.08570313 -7.91015625 1.09765625 C-11 1 -11 1 -14.18554688 0.51367188 C-18.17271974 -0.02325924 -22.10572285 -0.22156622 -26.12109375 -0.31640625 C-27.23823509 -0.3475779 -27.23823509 -0.3475779 -28.37794495 -0.37937927 C-30.73104625 -0.4441821 -33.08424843 -0.50343365 -35.4375 -0.5625 C-37.04362976 -0.6057513 -38.64974973 -0.64936757 -40.25585938 -0.69335938 C-44.17047249 -0.79979122 -48.08518591 -0.90124851 -52 -1 C-52 -1.33 -52 -1.66 -52 -2 C-48.10835398 -2.17061496 -44.21641628 -2.33077072 -40.32397461 -2.48217773 C-38.36615764 -2.56035734 -36.40865471 -2.64628075 -34.45117188 -2.73242188 C-22.71577603 -3.18033775 -11.45964363 -2.66443181 0 0 Z " fill="#4168CD" transform="translate(631,460)"/>
<path d="M0 0 C0 6.75759049 -8.32487534 12.36864896 -12.85717773 16.92089844 C-15.89511994 19.95705802 -18.94385625 22.98216857 -22 26 C-22.99 25.67 -23.98 25.34 -25 25 C-16.75 16.75 -8.5 8.5 0 0 Z " fill="#2F56BD" transform="translate(294,632)"/>
<path d="M0 0 C0.66 0 1.32 0 2 0 C0.69899677 7.85352246 -1.06406625 15.50090736 -3.125 23.1875 C-3.54072266 24.75854492 -3.54072266 24.75854492 -3.96484375 26.36132812 C-4.6394585 28.90858037 -5.31788647 31.4547476 -6 34 C-6.33 34 -6.66 34 -7 34 C-7.57345387 25.87379452 -5.92882448 19.09284766 -3.5 11.375 C-3.16613281 10.27542969 -2.83226562 9.17585937 -2.48828125 8.04296875 C-1.67110133 5.357949 -0.84154319 2.67746304 0 0 Z " fill="#3258BE" transform="translate(164,527)"/>
<path d="M0 0 C0.33 0 0.66 0 1 0 C1.33 12.54 1.66 25.08 2 38 C1.67 38 1.34 38 1 38 C1 36.35 1 34.7 1 33 C0.34 33 -0.32 33 -1 33 C-1.02465392 28.46102295 -1.04283789 23.92208457 -1.05493164 19.38305664 C-1.0599714 17.83780234 -1.0668032 16.29255284 -1.07543945 14.74731445 C-1.08752076 12.53074971 -1.09323173 10.31424782 -1.09765625 8.09765625 C-1.10281754 7.4028566 -1.10797882 6.70805695 -1.11329651 5.99220276 C-1.11349277 4.3277067 -1.06189129 2.66334501 -1 1 C-0.67 0.67 -0.34 0.34 0 0 Z " fill="#365EC5" transform="translate(153,582)"/>
<path d="M0 0 C1.703125 1.0703125 1.703125 1.0703125 3 3 C3.21714241 5.81127043 3.28284276 8.3883345 3.1875 11.1875 C3.16719727 12.31188477 3.16719727 12.31188477 3.14648438 13.45898438 C3.11118539 15.30629767 3.05737917 17.15324066 3 19 C2.67 19 2.34 19 2 19 C2 14.38 2 9.76 2 5 C1.34 5 0.68 5 0 5 C-0.66 4.01 -1.32 3.02 -2 2 C-7.03533076 2.12559782 -10.80604689 2.47962083 -14.875 5.625 C-15.90625 6.40875 -16.9375 7.1925 -18 8 C-18.99 7.67 -19.98 7.34 -21 7 C-19.41906946 5.87162591 -17.83515284 4.74743482 -16.25 3.625 C-15.36828125 2.99851562 -14.4865625 2.37203125 -13.578125 1.7265625 C-8.22289449 -1.85981914 -6.28246738 -2.39876027 0 0 Z " fill="#2A53C0" transform="translate(288,476)"/>
<path d="M0 0 C1.05055321 0.00424484 1.05055321 0.00424484 2.12232971 0.00857544 C4.33303795 0.01966365 6.54332296 0.04474547 8.75390625 0.0703125 C10.26366597 0.08035704 11.77343213 0.0894803 13.28320312 0.09765625 C16.96107222 0.11956536 20.63869785 0.15401492 24.31640625 0.1953125 C24.31640625 0.5253125 24.31640625 0.8553125 24.31640625 1.1953125 C16.35755394 2.42852008 8.35256246 2.53443398 0.31640625 2.7578125 C-1.14063532 2.80108615 -2.59766674 2.844703 -4.0546875 2.88867188 C-7.59754787 2.99484552 -11.14052338 3.09636361 -14.68359375 3.1953125 C-14.68359375 2.8653125 -14.68359375 2.5353125 -14.68359375 2.1953125 C-9.6156664 0.53755245 -5.38894171 -0.04328467 0 0 Z " fill="#2C55C1" transform="translate(575.68359375,444.8046875)"/>
<path d="M0 0 C4.3890815 0.51035831 7.33708062 1.52214277 11 4 C8.38336752 8.36105414 6.31865175 10.45961662 2 13 C0.36494128 14.35951623 -1.24013212 15.75594118 -2.8125 17.1875 C-3.60269531 17.90292969 -4.39289063 18.61835937 -5.20703125 19.35546875 C-5.79871094 19.89816406 -6.39039063 20.44085937 -7 21 C-7 18 -7 18 -5.4609375 16.1328125 C-4.77257812 15.47023438 -4.08421875 14.80765625 -3.375 14.125 C-2.65054687 13.42632813 -1.92609375 12.72765625 -1.1796875 12.0078125 C1.47296398 9.56433067 4.18401748 7.25278602 7 5 C4.525 4.01 4.525 4.01 2 3 C2 2.34 2 1.68 2 1 C1.34 0.67 0.68 0.34 0 0 Z " fill="#305AC6" transform="translate(346,547)"/>
<path d="M0 0 C6.12851558 0.98494 11.47071935 2.89504087 17.125 5.375 C17.79337891 5.66705322 18.46175781 5.95910645 19.15039062 6.26000977 C23.60106421 8.25459119 27.79890856 10.52299284 32 13 C30 14 30 14 28.23046875 13.4765625 C27.55628906 13.19554687 26.88210938 12.91453125 26.1875 12.625 C23.77684325 11.65549674 21.7615119 10.95760212 19.1875 10.5 C17 10 17 10 15.8125 8.63671875 C13.19125302 6.26968753 10.10607496 5.40595367 6.8125 4.3125 C6.15830078 4.08755859 5.50410156 3.86261719 4.83007812 3.63085938 C3.22271116 3.07942691 1.61169517 2.53865109 0 2 C0 1.34 0 0.68 0 0 Z " fill="#3059C2" transform="translate(632,441)"/>
<path d="M0 0 C0.33 0 0.66 0 1 0 C2.85225456 13.15100739 1.17706395 23.7323244 -4 36 C-4.99 36.495 -4.99 36.495 -6 37 C-5.38173398 32.00878996 -4.33183753 27.28798966 -3 22.4375 C-1.01914049 14.94483711 -0.24255771 7.76184669 0 0 Z " fill="#3D66CD" transform="translate(289,481)"/>
<path d="M0 0 C4.29 0 8.58 0 13 0 C13 0.66 13 1.32 13 2 C15.10348074 2.19504458 17.20782585 2.38078496 19.3125 2.5625 C20.48425781 2.66691406 21.65601563 2.77132813 22.86328125 2.87890625 C26.03032575 3.18577434 26.03032575 3.18577434 29 2 C29.33 1.34 29.66 0.68 30 0 C29.625 2.4375 29.625 2.4375 29 5 C22.89015511 8.05492245 15.15192665 5.24824336 9 3.5 C8.12988281 3.26152344 7.25976562 3.02304687 6.36328125 2.77734375 C4.23951325 2.193891 2.11875921 1.60133866 0 1 C0 0.67 0 0.34 0 0 Z " fill="#3B63CA" transform="translate(636,419)"/>
<path d="M0 0 C0 0.33 0 0.66 0 1 C-14.38795019 2.64769982 -28.52063616 3.27252314 -43 3 C-43 2.67 -43 2.34 -43 2 C-28.63916247 -0.05416833 -14.49101696 -0.2288982 0 0 Z " fill="#2950BB" transform="translate(846,579)"/>
<path d="M0 0 C10.48925548 -0.33358056 20.60886221 0.69381882 31 2 C31.33 2.99 31.66 3.98 32 5 C25.21234553 5.31524665 18.74108889 4.12385578 12.0625 3 C10.32129883 2.71382813 10.32129883 2.71382813 8.54492188 2.421875 C5.69575525 1.95287638 2.84753625 1.47878083 0 1 C0 0.67 0 0.34 0 0 Z " fill="#335BC3" transform="translate(514,286)"/>
<path d="M0 0 C0.33 0 0.66 0 1 0 C1.02505615 0.60473145 1.0501123 1.20946289 1.07592773 1.83251953 C1.19263006 4.5968562 1.31501734 7.36091366 1.4375 10.125 C1.47681641 11.07632813 1.51613281 12.02765625 1.55664062 13.0078125 C1.77053023 17.74628987 2.06561821 22.33594301 3 27 C6.79303725 25.99806563 9.71536341 25.18975773 13 23 C11.75023244 26.65316671 11.32901247 27.78065836 8 30 C5.5 30.4375 5.5 30.4375 3 30 C0.19508802 26.3095904 -0.36341404 23.62191264 -0.29296875 19.04296875 C-0.28330078 17.93115234 -0.27363281 16.81933594 -0.26367188 15.67382812 C-0.23853516 14.52333984 -0.21339844 13.37285156 -0.1875 12.1875 C-0.17396484 11.01767578 -0.16042969 9.84785156 -0.14648438 8.64257812 C-0.11120278 5.761248 -0.0619028 2.88086096 0 0 Z " fill="#2C50B6" transform="translate(711,593)"/>
<path d="M0 0 C-21.10418882 12.69332233 -21.10418882 12.69332233 -27.3046875 11.58984375 C-27.86414063 11.39519531 -28.42359375 11.20054687 -29 11 C-27.845 10.505 -26.69 10.01 -25.5 9.5 C-22.26402336 8.080712 -19.11059704 6.55442179 -15.98046875 4.91796875 C-14.92085937 4.36882813 -14.92085937 4.36882813 -13.83984375 3.80859375 C-12.416627 3.06728121 -10.99849982 2.31610585 -9.5859375 1.5546875 C-5.91044469 -0.35085926 -3.95323202 -1.32281434 0 0 Z " fill="#2F58BF" transform="translate(233,674)"/>
<path d="M0 0 C2.3125 0.1875 2.3125 0.1875 4 1 C-12.72562358 17 -12.72562358 17 -19 17 C-19 16.34 -19 15.68 -19 15 C-16.80114456 13.31887236 -14.60009427 11.73922479 -12.3125 10.1875 C-8.63221587 7.68217785 -5.35476628 5.37831498 -2.29296875 2.11328125 C-1.53628906 1.41589844 -0.77960938 0.71851563 0 0 Z " fill="#3058C3" transform="translate(253,655)"/>
<path d="M0 0 C0 0.66 0 1.32 0 2 C-0.99 2.50789062 -1.98 3.01578125 -3 3.5390625 C-12.71127192 8.56912556 -12.71127192 8.56912556 -21.484375 15.06640625 C-22.23460937 15.52853516 -22.23460937 15.52853516 -23 16 C-23.99 15.67 -24.98 15.34 -26 15 C-19.97726349 9.93285425 -14.04167798 5.53453875 -7 2 C-6.31679688 1.62617187 -5.63359375 1.25234375 -4.9296875 0.8671875 C-3 0 -3 0 0 0 Z " fill="#315AC6" transform="translate(302,551)"/>
<path d="M0 0 C-5.48471271 2.8012318 -11.00269294 5.38260045 -16.6875 7.75 C-17.78674805 8.22373047 -17.78674805 8.22373047 -18.90820312 8.70703125 C-22.73759542 10.30232362 -25.76690281 11.43416381 -30 11 C-27.30799918 8.8544784 -24.76710496 7.31760209 -21.59375 5.9921875 C-20.76746094 5.64542969 -19.94117188 5.29867188 -19.08984375 4.94140625 C-17.80787109 4.41353516 -17.80787109 4.41353516 -16.5 3.875 C-15.21802734 3.33552734 -15.21802734 3.33552734 -13.91015625 2.78515625 C-4.01260727 -1.33753576 -4.01260727 -1.33753576 0 0 Z " fill="#3058C3" transform="translate(502,474)"/>
<path d="M0 0 C0 0.66 0 1.32 0 2 C-1.0828125 2.85464844 -1.0828125 2.85464844 -2.1875 3.7265625 C-5.33499169 6.27078495 -7.61773895 9.14405844 -10 12.375 C-10.83208495 13.48791363 -11.66541559 14.59989701 -12.5 15.7109375 C-12.90605469 16.25202148 -13.31210937 16.79310547 -13.73046875 17.35058594 C-15.74373588 19.96628455 -17.86840411 22.48014915 -20 25 C-20.66 24.67 -21.32 24.34 -22 24 C-4.52427184 0 -4.52427184 0 0 0 Z " fill="#2E56BE" transform="translate(547,397)"/>
<path d="M0 0 C6.23952418 0.34033768 11.90458914 1.68773707 17.875 3.4375 C18.62450928 3.65494873 19.37401855 3.87239746 20.14624023 4.09643555 C23.47190288 5.09740696 26.09112705 6.06075137 29 8 C22.61230585 7.43206316 16.72268269 6.32181945 10.5625 4.5625 C9.76134766 4.34529297 8.96019531 4.12808594 8.13476562 3.90429688 C2.25471129 2.25471129 2.25471129 2.25471129 0 0 Z " fill="#2F57C1" transform="translate(633,461)"/>
<path d="M0 0 C-0.94637329 0.03758423 -0.94637329 0.03758423 -1.91186523 0.07592773 C-4.75396825 0.19154137 -7.59571083 0.31442316 -10.4375 0.4375 C-11.92733398 0.49647461 -11.92733398 0.49647461 -13.44726562 0.55664062 C-14.86362305 0.61948242 -14.86362305 0.61948242 -16.30859375 0.68359375 C-17.62041626 0.73858032 -17.62041626 0.73858032 -18.95874023 0.79467773 C-20.9927402 0.78181066 -20.9927402 0.78181066 -22 2 C-24.67058851 2.14115161 -27.32432238 2.04247107 -30 2 C-22.24759154 -3.16827231 -8.24219126 -4.49310412 0 0 Z " fill="#244BBC" transform="translate(605,379)"/>
<path d="M0 0 C0 3 0 3 -1.37695312 4.7175293 C-2.00537109 5.33023682 -2.63378906 5.94294434 -3.28125 6.57421875 C-3.95800781 7.24130859 -4.63476562 7.90839844 -5.33203125 8.59570312 C-6.04746094 9.28599609 -6.76289063 9.97628906 -7.5 10.6875 C-8.57314453 11.7403418 -8.57314453 11.7403418 -9.66796875 12.81445312 C-11.43879577 14.54986361 -13.21623456 16.2779073 -15 18 C-15.33 17.01 -15.66 16.02 -16 15 C-13.71240451 12.68344197 -11.41925113 10.37246517 -9.125 8.0625 C-8.47402344 7.40314453 -7.82304687 6.74378906 -7.15234375 6.06445312 C-6.52714844 5.43603516 -5.90195312 4.80761719 -5.2578125 4.16015625 C-4.6817627 3.57886963 -4.10571289 2.99758301 -3.51220703 2.39868164 C-2 1 -2 1 0 0 Z " fill="#325AC3" transform="translate(285,625)"/>
<path d="M0 0 C2.45125548 2.45125548 3.48196328 4.99671265 4.90234375 8.125 C6.00230009 10.31773269 6.00230009 10.31773269 9 12 C11.32387947 12.39387788 13.65793749 12.73486085 16 13 C15.67 13.66 15.34 14.32 15 15 C10.03317768 15.29216602 6.89650666 15.24708889 3 12 C0.34576147 7.881354 -0.3477436 4.86841035 0 0 Z " fill="#345ABC" transform="translate(161,676)"/>
<path d="M0 0 C1.07310858 3.27185553 0.89263102 5.42947592 0.0625 8.75 C-0.22947266 9.94882812 -0.22947266 9.94882812 -0.52734375 11.171875 C-0.68332031 11.77515625 -0.83929687 12.3784375 -1 13 C-1.33 13 -1.66 13 -2 13 C-2.33 19.6 -2.66 26.2 -3 33 C-3.33 33 -3.66 33 -4 33 C-4.08825361 29.52099751 -4.14080635 26.04228883 -4.1875 22.5625 C-4.21263672 21.58861328 -4.23777344 20.61472656 -4.26367188 19.61132812 C-4.33598763 12.40385823 -3.23193869 6.46387737 0 0 Z " fill="#3C62C3" transform="translate(714,581)"/>
<path d="M0 0 C0 7.53182299 -7.03807143 15.58698701 -12 21 C-12.33 20.01 -12.66 19.02 -13 18 C-11.70703125 15.765625 -11.70703125 15.765625 -9.8125 13.25 C-7.58149819 10.21459315 -5.48417002 7.24968176 -3.6875 3.9375 C-2 1 -2 1 0 0 Z " fill="#2A52BA" transform="translate(279,526)"/>
<path d="M0 0 C16.8929385 -0.3690205 16.8929385 -0.3690205 24 2 C24 2.33 24 2.66 24 3 C15.61988971 3.15392039 7.35104207 2.68271293 -1 2 C-0.67 1.34 -0.34 0.68 0 0 Z " fill="#3760C6" transform="translate(605,415)"/>
<path d="M0 0 C4.90119023 0.46150567 8.06289212 2.92380361 11.8125 5.875 C12.40998047 6.32230469 13.00746094 6.76960938 13.62304688 7.23046875 C15.14507654 8.40982431 16.58054189 9.69900326 18 11 C18 11.99 18 12.98 18 14 C17.28714844 13.48050781 16.57429687 12.96101563 15.83984375 12.42578125 C14.88207031 11.72839844 13.92429687 11.03101563 12.9375 10.3125 C11.93976562 9.58546875 10.94203125 8.8584375 9.9140625 8.109375 C7.56056959 6.40577424 5.19299208 4.72786483 2.8125 3.0625 C1.884375 2.381875 0.95625 1.70125 0 1 C0 0.67 0 0.34 0 0 Z " fill="#2E57C2" transform="translate(655,337)"/>
<path d="M0 0 C0 0.66 0 1.32 0 2 C-8.96563793 4.68969138 -15.8883529 5.28201612 -25 3 C-25 2.67 -25 2.34 -25 2 C-23.35451172 1.90912109 -23.35451172 1.90912109 -21.67578125 1.81640625 C-20.22134346 1.73195502 -18.76691695 1.64730934 -17.3125 1.5625 C-16.59126953 1.52318359 -15.87003906 1.48386719 -15.12695312 1.44335938 C-10.02585497 1.14055446 -5.09113242 0 0 0 Z " fill="#3059C3" transform="translate(215,693)"/>
<path d="M0 0 C7.50752597 1.23074196 13.62378103 3.80991325 20 8 C20.33 8.66 20.66 9.32 21 10 C17.29447687 9.40553105 14.38505149 8.35713585 11.0625 6.625 C10.20011719 6.18027344 9.33773437 5.73554687 8.44921875 5.27734375 C7.64097656 4.85582031 6.83273437 4.43429687 6 4 C4.79309833 3.39297845 3.58505295 2.78821512 2.375 2.1875 C1.59125 1.795625 0.8075 1.40375 0 1 C0 0.67 0 0.34 0 0 Z " fill="#3157BE" transform="translate(848,580)"/>
<path d="M0 0 C-2.18376766 1.13277268 -4.37157128 2.25622789 -6.5625 3.375 C-7.17158203 3.69210937 -7.78066406 4.00921875 -8.40820312 4.3359375 C-12.53701886 6.43311374 -16.51082113 7.85603936 -21 9 C-21 8.34 -21 7.68 -21 7 C-18.25643874 5.63121452 -15.50644895 4.27986823 -12.75 2.9375 C-11.97269531 2.54755859 -11.19539063 2.15761719 -10.39453125 1.75585938 C-9.26337891 1.20961914 -9.26337891 1.20961914 -8.109375 0.65234375 C-7.41811523 0.31195068 -6.72685547 -0.02844238 -6.01464844 -0.37915039 C-3.62242947 -1.11635505 -2.33429153 -0.80784795 0 0 Z " fill="#2F58C3" transform="translate(480,470)"/>
<path d="M0 0 C-2.76450021 1.67734723 -5.53756856 3.33997634 -8.3125 5 C-9.09818359 5.47695313 -9.88386719 5.95390625 -10.69335938 6.4453125 C-11.45068359 6.89648438 -12.20800781 7.34765625 -12.98828125 7.8125 C-13.68477783 8.23144531 -14.38127441 8.65039062 -15.09887695 9.08203125 C-17 10 -17 10 -20 10 C-16.97541373 6.72094133 -13.83124459 4.46230148 -10 2.1875 C-8.453125 1.24970703 -8.453125 1.24970703 -6.875 0.29296875 C-3.73324892 -1.1199655 -3.11236781 -0.99306907 0 0 Z " fill="#3059C2" transform="translate(457,481)"/>
<path d="M0 0 C7.02952752 0.4535179 12.5849443 2.12059087 19 5 C19 5.66 19 6.32 19 7 C16.03 6.67 13.06 6.34 10 6 C10 5.34 10 4.68 10 4 C9.36191406 3.87882812 8.72382812 3.75765625 8.06640625 3.6328125 C7.24011719 3.46523438 6.41382813 3.29765625 5.5625 3.125 C4.73878906 2.96257812 3.91507813 2.80015625 3.06640625 2.6328125 C2.38449219 2.42398437 1.70257812 2.21515625 1 2 C0.67 1.34 0.34 0.68 0 0 Z " fill="#325BC5" transform="translate(575,298)"/>
<path d="M0 0 C0.66 0.33 1.32 0.66 2 1 C-2.44512827 6.58490476 -7.24454091 10.79211991 -13 15 C-13.66 14.67 -14.32 14.34 -15 14 C-13.33333333 12.33333333 -11.66666667 10.66666667 -10 9 C-9.1646875 8.1028125 -9.1646875 8.1028125 -8.3125 7.1875 C-7 6 -7 6 -5 6 C-5 5.34 -5 4.68 -5 4 C-3.37373596 2.61767557 -1.7074998 1.28062485 0 0 Z " fill="#2951BC" transform="translate(263,548)"/>
<path d="M0 0 C0 0.66 0 1.32 0 2 C-2.76203532 3.53723734 -5.53585152 5.05184161 -8.3125 6.5625 C-9.09818359 7.00013672 -9.88386719 7.43777344 -10.69335938 7.88867188 C-11.45068359 8.29794922 -12.20800781 8.70722656 -12.98828125 9.12890625 C-14.03302612 9.70233765 -14.03302612 9.70233765 -15.09887695 10.28735352 C-17 11 -17 11 -20 10 C-3.73333333 0 -3.73333333 0 0 0 Z " fill="#3059C4" transform="translate(470,486)"/>
<path d="M0 0 C0.66 0.33 1.32 0.66 2 1 C-0.28838148 5.57676297 -3.60370842 9.34224191 -8 12 C-8.99 11.67 -9.98 11.34 -11 11 C-7.37 7.37 -3.74 3.74 0 0 Z " fill="#3762CE" transform="translate(404,207)"/>
<path d="M0 0 C0.33 0.99 0.66 1.98 1 3 C-0.328125 5.0859375 -0.328125 5.0859375 -2.25 7.375 C-4.32852846 9.90807743 -6.13903167 12.23491559 -7.8125 15.0625 C-8.4003125 16.0215625 -8.4003125 16.0215625 -9 17 C-9.66 17 -10.32 17 -11 17 C-8.66182116 10.37515995 -4.51233273 5.26438819 0 0 Z " fill="#2F57C0" transform="translate(242,611)"/>
<path d="M0 0 C8.40215965 -0.11039334 16.64736824 0.04541351 25 1 C25 1.33 25 1.66 25 2 C19.89043667 2.68127511 14.8427324 3.12349123 9.6875 3.25 C8.20830078 3.28867187 8.20830078 3.28867187 6.69921875 3.328125 C3.61361459 2.95302985 2.27882342 2.05689525 0 0 Z " fill="#456FD7" transform="translate(588,444)"/>
<path d="M0 0 C0.33 1.32 0.66 2.64 1 4 C-1.125 6.4375 -1.125 6.4375 -4 9 C-4.928125 9.928125 -5.85625 10.85625 -6.8125 11.8125 C-7.534375 12.534375 -8.25625 13.25625 -9 14 C-9.99 13.67 -10.98 13.34 -12 13 C-8.04 8.71 -4.08 4.42 0 0 Z " fill="#345CC3" transform="translate(321,583)"/>
<path d="M0 0 C0.33 0 0.66 0 1 0 C1.20496094 1.16917969 1.40992188 2.33835938 1.62109375 3.54296875 C1.89319855 5.09115122 2.16533567 6.639328 2.4375 8.1875 C2.57220703 8.95642578 2.70691406 9.72535156 2.84570312 10.51757812 C3.52089704 14.35465574 4.21232777 18.18399568 5 22 C4.34 22 3.68 22 3 22 C-0.50848663 14.69065285 -0.30372936 8.00945568 0 0 Z " fill="#365FC3" transform="translate(426,238)"/>
<path d="M0 0 C0.99 0.33 1.98 0.66 3 1 C-0.96 4.96 -4.92 8.92 -9 13 C-9.33 12.01 -9.66 11.02 -10 10 C-6.7 6.7 -3.4 3.4 0 0 Z " fill="#2F56BE" transform="translate(259,377)"/>
<path d="M0 0 C4.14298667 0.59834725 7.18194377 2.00664285 10.8125 4.0625 C11.78832031 4.61035156 12.76414062 5.15820312 13.76953125 5.72265625 C14.50558594 6.14417969 15.24164062 6.56570313 16 7 C15.67 7.66 15.34 8.32 15 9 C9.26800429 7.53025751 4.66416601 4.55513098 0 1 C0 0.67 0 0.34 0 0 Z " fill="#3058C0" transform="translate(789,512)"/>
<path d="M0 0 C0.66 0 1.32 0 2 0 C0.61085525 4.29718953 -1.38031985 6.70687757 -4.625 9.8125 C-5.44226563 10.60269531 -6.25953125 11.39289063 -7.1015625 12.20703125 C-7.72804688 12.79871094 -8.35453125 13.39039063 -9 14 C-9.66 13.67 -10.32 13.34 -11 13 C-10.06027344 11.96939453 -10.06027344 11.96939453 -9.1015625 10.91796875 C-8.28429687 10.01691406 -7.46703125 9.11585938 -6.625 8.1875 C-5.81289063 7.29417969 -5.00078125 6.40085937 -4.1640625 5.48046875 C-1.90927093 3.00367326 -1.90927093 3.00367326 0 0 Z " fill="#2C54BD" transform="translate(352,304)"/>
<path d="M0 0 C0.66 0 1.32 0 2 0 C0.42491141 3.66379303 -1.84193573 6.29851305 -4.5 9.25 C-5.2940625 10.14203125 -6.088125 11.0340625 -6.90625 11.953125 C-9 14 -9 14 -11 14 C-9.61263874 10.84375314 -7.99607292 8.80136567 -5.5 6.4375 C-3.27903267 4.32475777 -1.72257583 2.58386374 0 0 Z " fill="#3058C1" transform="translate(324,598)"/>
<path d="M0 0 C4.13813705 0.53176995 6.27082318 2.77932166 9.25 5.5625 C10.14203125 6.38878906 11.0340625 7.21507812 11.953125 8.06640625 C12.62859375 8.70449219 13.3040625 9.34257813 14 10 C13.01 10.33 12.02 10.66 11 11 C9.16365304 9.35742342 7.3308593 7.71117305 5.5 6.0625 C4.97535156 5.59392578 4.45070313 5.12535156 3.91015625 4.64257812 C2.5878256 3.44904592 1.29166061 2.22665821 0 1 C0 0.67 0 0.34 0 0 Z " fill="#325AC1" transform="translate(841,538)"/>
<path d="M0 0 C0.66 0.33 1.32 0.66 2 1 C-1.38232729 4.58128772 -4.67246241 7.60604303 -9 10 C-11.18359375 9.6015625 -11.18359375 9.6015625 -13 9 C-11.71802734 8.15115234 -11.71802734 8.15115234 -10.41015625 7.28515625 C-9.2942305 6.54433159 -8.17834728 5.80344286 -7.0625 5.0625 C-6.49853516 4.68931641 -5.93457031 4.31613281 -5.35351562 3.93164062 C-2.53966389 2.14034283 -2.53966389 2.14034283 0 0 Z " fill="#3760C6" transform="translate(341,315)"/>
<path d="M0 0 C0.66 0.33 1.32 0.66 2 1 C2.05449838 2.72880982 2.09301688 4.45812712 2.125 6.1875 C2.14820313 7.15042969 2.17140625 8.11335937 2.1953125 9.10546875 C1.9913544 12.12812778 1.26874632 14.26769985 0 17 C-0.33 17 -0.66 17 -1 17 C-0.67 11.39 -0.34 5.78 0 0 Z " fill="#2B52BB" transform="translate(740,522)"/>
<path d="M0 0 C0.66 0.33 1.32 0.66 2 1 C0.02 5.95 -1.96 10.9 -4 16 C-4.33 16 -4.66 16 -5 16 C-4.55643705 9.79011871 -3.08467498 5.39459439 0 0 Z " fill="#2F57BC" transform="translate(173,504)"/>
<path d="M0 0 C-2.93969054 1.95979369 -4.55022586 2.48320069 -7.9375 3.125 C-8.79214844 3.29257812 -9.64679687 3.46015625 -10.52734375 3.6328125 C-13 4 -13 4 -17 4 C-17 3.34 -17 2.68 -17 2 C-11.19233704 0.4943096 -6.0018137 -0.21824777 0 0 Z " fill="#3158BF" transform="translate(545,450)"/>
<path d="M0 0 C0.66 0.33 1.32 0.66 2 1 C0.78575607 2.49144105 -0.44706045 3.96777403 -1.6875 5.4375 C-2.37199219 6.26121094 -3.05648438 7.08492188 -3.76171875 7.93359375 C-6.24022612 10.22177944 -7.69136813 10.68130516 -11 11 C-7.33333333 7.33333333 -3.66666667 3.66666667 0 0 Z " fill="#3860C4" transform="translate(276,361)"/>
<path d="M0 0 C0.66 0.33 1.32 0.66 2 1 C-1.63 4.3 -5.26 7.6 -9 11 C-9.99 10.67 -10.98 10.34 -12 10 C-8.04 6.7 -4.08 3.4 0 0 Z " fill="#2C52B7" transform="translate(267,659)"/>
<path d="M0 0 C6.93 0.495 6.93 0.495 14 1 C13.01 2.485 13.01 2.485 12 4 C8.875 4.1875 8.875 4.1875 6 4 C6 3.34 6 2.68 6 2 C3.03 1.505 3.03 1.505 0 1 C0 0.67 0 0.34 0 0 Z " fill="#2D57C4" transform="translate(420,493)"/>
<path d="M0 0 C0.68359375 1.765625 0.68359375 1.765625 1 4 C-0.21484375 5.921875 -0.21484375 5.921875 -1.9375 7.75 C-2.50339844 8.36359375 -3.06929687 8.9771875 -3.65234375 9.609375 C-4.31943359 10.29773438 -4.31943359 10.29773438 -5 11 C-5.99 10.67 -6.98 10.34 -8 10 C-7.67 9.34 -7.34 8.68 -7 8 C-6.34 8 -5.68 8 -5 8 C-4.731875 7.4225 -4.46375 6.845 -4.1875 6.25 C-2.98280141 3.9674132 -1.59201885 2.0262058 0 0 Z " fill="#365EC2" transform="translate(231,407)"/>
<path d="M0 0 C0.99 0.33 1.98 0.66 3 1 C-0.63 4.3 -4.26 7.6 -8 11 C-8.66 10.67 -9.32 10.34 -10 10 C-3.25842697 1.79775281 -3.25842697 1.79775281 0 0 Z " fill="#2B51BD" transform="translate(285,354)"/>
<path d="M0 0 C0.33 0.99 0.66 1.98 1 3 C-1.89380576 7.17048478 -3.98990293 9.56854369 -9 11 C-8.34 10.236875 -7.68 9.47375 -7 8.6875 C-4.70149462 6.15722061 -4.70149462 6.15722061 -5 3 C-2.5 1.3125 -2.5 1.3125 0 0 Z " fill="#2E54BC" transform="translate(309,615)"/>
<path d="M0 0 C4.76350585 0.71452588 9.34201396 1.79534844 14 3 C14 3.33 14 3.66 14 4 C5.21276596 4.29787234 5.21276596 4.29787234 1 2 C0.67 1.34 0.34 0.68 0 0 Z " fill="#2E54BE" transform="translate(380,559)"/>
<path d="M0 0 C0.66 0.33 1.32 0.66 2 1 C-0.36292656 3.52588702 -1.66462511 4.88820837 -5 6 C-7.04296875 5.87890625 -7.04296875 5.87890625 -9.1875 5.5625 C-10.445625 5.376875 -11.70375 5.19125 -13 5 C-13 4.67 -13 4.34 -13 4 C-12.31292969 3.87882813 -11.62585938 3.75765625 -10.91796875 3.6328125 C-9.56638672 3.38144531 -9.56638672 3.38144531 -8.1875 3.125 C-7.29417969 2.96257813 -6.40085938 2.80015625 -5.48046875 2.6328125 C-2.77272154 2.08811551 -2.77272154 2.08811551 0 0 Z " fill="#3D65CC" transform="translate(247,561)"/>
<path d="M0 0 C0 3.08401374 -0.34209098 4.03663956 -1.8125 6.625 C-2.14894531 7.23601563 -2.48539062 7.84703125 -2.83203125 8.4765625 C-4 10 -4 10 -7 11 C-3.57894737 1.78947368 -3.57894737 1.78947368 0 0 Z " fill="#3058C1" transform="translate(279,526)"/>
<path d="M0 0 C6.93 0.495 6.93 0.495 14 1 C14 1.33 14 1.66 14 2 C5.585 2.495 5.585 2.495 -3 3 C-2.01 2.67 -1.02 2.34 0 2 C0 1.34 0 0.68 0 0 Z " fill="#466ED5" transform="translate(563,458)"/>
<path d="M0 0 C0.515625 0.309375 1.03125 0.61875 1.5625 0.9375 C4.66665423 2.29059287 7.65115007 2.61359424 11 3 C10.67 3.66 10.34 4.32 10 5 C3.51707705 5.3669579 3.51707705 5.3669579 1.0625 3.625 C0 2 0 2 0 0 Z " fill="#2C52B6" transform="translate(166,686)"/>
<path d="M0 0 C0.99 0.33 1.98 0.66 3 1 C0.03 3.64 -2.94 6.28 -6 9 C-6 6 -6 6 -4.6875 4.39453125 C-4.130625 3.87246094 -3.57375 3.35039063 -3 2.8125 C-2.443125 2.28269531 -1.88625 1.75289062 -1.3125 1.20703125 C-0.6628125 0.60955078 -0.6628125 0.60955078 0 0 Z " fill="#2C54BC" transform="translate(345,559)"/>
<path d="M0 0 C0.66 0.33 1.32 0.66 2 1 C-0.31 3.97 -2.62 6.94 -5 10 C-5.33 9.01 -5.66 8.02 -6 7 C-4.78515625 5.17578125 -4.78515625 5.17578125 -3.0625 3.3125 C-2.49660156 2.68988281 -1.93070313 2.06726563 -1.34765625 1.42578125 C-0.90292969 0.95527344 -0.45820313 0.48476563 0 0 Z " fill="#294FB4" transform="translate(223,418)"/>
<path d="M0 0 C0.66 0.33 1.32 0.66 2 1 C1.34 4.63 0.68 8.26 0 12 C-2.61577816 6.76844369 -1.6207859 5.40261966 0 0 Z " fill="#355FCA" transform="translate(232,533)"/>
<path d="M0 0 C3 4 3 4 3.07421875 6.578125 C2.94660156 7.45984375 2.81898438 8.3415625 2.6875 9.25 C2.50767578 10.58804688 2.50767578 10.58804688 2.32421875 11.953125 C2.21722656 12.62859375 2.11023438 13.3040625 2 14 C1.67 14 1.34 14 1 14 C0.67 9.38 0.34 4.76 0 0 Z " fill="#4169CC" transform="translate(153,615)"/>
<path d="M0 0 C0 4.38968456 -2.12805101 5.76905739 -5 9 C-5.99 8.67 -6.98 8.34 -8 8 C-5.36 5.36 -2.72 2.72 0 0 Z " fill="#2C55BC" transform="translate(334,588)"/>
<path d="M0 0 C0.6875 1.625 0.6875 1.625 1 4 C-0.4375 7.25 -0.4375 7.25 -2 10 C-2.33 10 -2.66 10 -3 10 C-2.25 3.375 -2.25 3.375 0 0 Z " fill="#2C53BC" transform="translate(286,508)"/>
<path d="M0 0 C0.66 0.33 1.32 0.66 2 1 C0.38405168 3.04119788 -1.2856382 5.04072937 -3 7 C-3.66 7 -4.32 7 -5 7 C-5.33 7.66 -5.66 8.32 -6 9 C-5.52797514 4.75177626 -3.03344482 2.80010291 0 0 Z " fill="#355CC0" transform="translate(404,207)"/>
<path d="M0 0 C0.99 0 1.98 0 3 0 C5.25 2.3125 5.25 2.3125 7 5 C6.67 5.99 6.34 6.98 6 8 C4.9970458 6.85675161 3.99770973 5.71032809 3 4.5625 C2.443125 3.92441406 1.88625 3.28632812 1.3125 2.62890625 C0 1 0 1 0 0 Z " fill="#2B51B7" transform="translate(853,549)"/>
<path d="M0 0 C3.53600465 1.91135386 5.78972846 3.62642766 8 7 C7.67 7.66 7.34 8.32 7 9 C5.82737096 7.88121617 4.66204862 6.75476949 3.5 5.625 C2.8503125 4.99851562 2.200625 4.37203125 1.53125 3.7265625 C0 2 0 2 0 0 Z " fill="#2952BC" transform="translate(780,502)"/>
<path d="M0 0 C-3.53411321 2.12046792 -6.94393835 2.53199289 -11 3 C-11 2.34 -11 1.68 -11 1 C-7.32589215 -0.17571451 -3.83070817 -0.07366746 0 0 Z " fill="#2C55C0" transform="translate(524,455)"/>
<path d="M0 0 C1.43836751 0.11458693 2.87570966 0.24209116 4.3125 0.375 C5.51326172 0.47941406 5.51326172 0.47941406 6.73828125 0.5859375 C9 1 9 1 12 3 C4.61538462 3.36923077 4.61538462 3.36923077 1.5 1.5 C1.005 1.005 0.51 0.51 0 0 Z " fill="#2652C4" transform="translate(652,454)"/>
<path d="M0 0 C0.66 0.33 1.32 0.66 2 1 C0.68 2.65 -0.64 4.3 -2 6 C-3.32 5.67 -4.64 5.34 -6 5 C-4.02 3.35 -2.04 1.7 0 0 Z " fill="#3A61C6" transform="translate(292,348)"/>
<path d="M0 0 C0.33 0.99 0.66 1.98 1 3 C-0.32 4.32 -1.64 5.64 -3 7 C-3.99 6.67 -4.98 6.34 -6 6 C-4.02 4.02 -2.04 2.04 0 0 Z " fill="#2C52B9" transform="translate(262,592)"/>
<path d="M0 0 C-0.33 0.66 -0.66 1.32 -1 2 C-3.64860427 2.59355614 -6.29197322 2.74209269 -9 3 C-9 2.34 -9 1.68 -9 1 C-5.8035914 -0.06546953 -3.34252724 -0.07427838 0 0 Z " fill="#3059C2" transform="translate(512,458)"/>
<path d="M0 0 C0.33 0.99 0.66 1.98 1 3 C-0.0625 4.5 -0.0625 4.5 -2 6 C-5.6875 6.1875 -5.6875 6.1875 -9 6 C-9 5.67 -9 5.34 -9 5 C-7.02 5 -5.04 5 -3 5 C-2.67 4.01 -2.34 3.02 -2 2 C-1.34 2 -0.68 2 0 2 C0 1.34 0 0.68 0 0 Z " fill="#254FB8" transform="translate(665,419)"/>
<path d="M0 0 C2.97 0 5.94 0 9 0 C9.33 0.99 9.66 1.98 10 3 C6.7 2.34 3.4 1.68 0 1 C0 0.67 0 0.34 0 0 Z " fill="#2B54C0" transform="translate(636,419)"/>
<path d="M0 0 C0.99 0.33 1.98 0.66 3 1 C1.02 3.31 -0.96 5.62 -3 8 C-3.33 7.01 -3.66 6.02 -4 5 C-2.0625 2.3125 -2.0625 2.3125 0 0 Z " fill="#284FB9" transform="translate(236,401)"/>
<path d="M0 0 C-3.26545761 1.88391785 -6.28111761 2.49287967 -10 3 C-10 2.34 -10 1.68 -10 1 C-6.21812119 -0.83691257 -4.05431692 -1.15837626 0 0 Z " fill="#3761CD" transform="translate(578,381)"/>
<path d="M0 0 C-2 2 -2 2 -3.9453125 2.1953125 C-5.96354167 2.13020833 -7.98177083 2.06510417 -10 2 C-6.19832777 -0.53444815 -4.31588991 -1.33941411 0 0 Z " fill="#2E56C1" transform="translate(585,379)"/>
<path d="M0 0 C0.33 0.99 0.66 1.98 1 3 C-0.28965176 4.37562854 -1.62689293 5.70766393 -3 7 C-3.66 7 -4.32 7 -5 7 C-3.70700306 4.11562221 -2.34058637 2.12780579 0 0 Z " fill="#2F57BF" transform="translate(341,580)"/>
<path d="M0 0 C0.5625 1.9375 0.5625 1.9375 1 4 C0.67 4.33 0.34 4.66 0 5 C-0.36760731 7.32817964 -0.70241581 9.6618385 -1 12 C-1.33 12 -1.66 12 -2 12 C-2.05422947 10.5629191 -2.09289723 9.12524538 -2.125 7.6875 C-2.14820313 6.88699219 -2.17140625 6.08648438 -2.1953125 5.26171875 C-2 3 -2 3 0 0 Z " fill="#234BB6" transform="translate(265,579)"/>
<path d="M0 0 C-1.15173355 2.46800047 -2.04783565 4.04783565 -4 6 C-4.99 5.67 -5.98 5.34 -7 5 C-2.25 0 -2.25 0 0 0 Z " fill="#325AC1" transform="translate(364,559)"/>
<path d="M0 0 C-1 2 -1 2 -3.3125 3.1875 C-6.11989571 4.03624754 -7.301935 3.99928333 -10 3 C-6.48812804 0.59185923 -4.27343092 -0.36629408 0 0 Z " fill="#254FC0" transform="translate(502,461)"/>
<path d="M0 0 C0.66 0.66 1.32 1.32 2 2 C1.01 1.67 0.02 1.34 -1 1 C-0.67 0.67 -0.34 0.34 0 0 Z " fill="#496FCC" transform="translate(177,692)"/>
<path d="M0 0 C4 1 4 1 4 1 Z " fill="#466FD6" transform="translate(841,582)"/>
<path d="M0 0 C3 1 3 1 3 1 Z " fill="#446DD5" transform="translate(403,567)"/>
<path d="M0 0 C2 1 2 1 2 1 Z " fill="#476ED5" transform="translate(753,597)"/>
<path d="M0 0 C2 1 2 1 2 1 Z " fill="#436CD6" transform="translate(793,581)"/>
<path d="M0 0 C2 1 2 1 2 1 Z " fill="#4870D3" transform="translate(436,567)"/>
<path d="M0 0 C2 1 2 1 2 1 Z " fill="#426CD8" transform="translate(497,477)"/>
<path d="M0 0 C2 1 2 1 2 1 Z " fill="#416AD5" transform="translate(617,461)"/>
<path d="M0 0 C2 1 2 1 2 1 Z " fill="#436DD7" transform="translate(638,416)"/>
<path d="M0 0 C2 1 2 1 2 1 Z " fill="#436DDE" transform="translate(579,382)"/>
<path d="" fill="#6B6B6B" transform="translate(0,0)"/>
<path d="" fill="#4D6FC8" transform="translate(0,0)"/>
<path d="" fill="#426BD7" transform="translate(0,0)"/>
<path d="" fill="#446DD5" transform="translate(0,0)"/>
<path d="" fill="#446DD8" transform="translate(0,0)"/>
<path d="" fill="#4B6FC6" transform="translate(0,0)"/>
<path d="" fill="#476FD6" transform="translate(0,0)"/>
<path d="" fill="#4770DA" transform="translate(0,0)"/>
<path d="" fill="#426CD4" transform="translate(0,0)"/>
<path d="" fill="#4C72CD" transform="translate(0,0)"/>
<path d="" fill="#476ED6" transform="translate(0,0)"/>
<path d="" fill="#476DD4" transform="translate(0,0)"/>
<path d="" fill="#456DD5" transform="translate(0,0)"/>
<path d="" fill="#4771D1" transform="translate(0,0)"/>
<path d="" fill="#436CD0" transform="translate(0,0)"/>
<path d="" fill="#436CD7" transform="translate(0,0)"/>
<path d="" fill="#436CD9" transform="translate(0,0)"/>
<path d="" fill="#4771DC" transform="translate(0,0)"/>
<path d="" fill="#446EDB" transform="translate(0,0)"/>
<path d="" fill="#416DD8" transform="translate(0,0)"/>
<path d="" fill="#476FD2" transform="translate(0,0)"/>
<path d="" fill="#436BDA" transform="translate(0,0)"/>
<path d="" fill="#456DD8" transform="translate(0,0)"/>
<path d="" fill="#426FDC" transform="translate(0,0)"/>
<path d="" fill="#3F68D8" transform="translate(0,0)"/>
<path d="" fill="#446ADA" transform="translate(0,0)"/>
<path d="" fill="#466FD4" transform="translate(0,0)"/>
<path d="" fill="#426CDC" transform="translate(0,0)"/>
<path d="" fill="#456DD7" transform="translate(0,0)"/>
<path d="" fill="#436CD9" transform="translate(0,0)"/>
<path d="" fill="#426DD8" transform="translate(0,0)"/>
<path d="" fill="#416AD5" transform="translate(0,0)"/>
<path d="" fill="#466FD8" transform="translate(0,0)"/>
<path d="" fill="#436DDD" transform="translate(0,0)"/>
<path d="" fill="#416BDA" transform="translate(0,0)"/>
<path d="" fill="#446EDB" transform="translate(0,0)"/>
<path d="" fill="#466FDC" transform="translate(0,0)"/>
<path d="" fill="#456BD8" transform="translate(0,0)"/>
<path d="" fill="#4770D8" transform="translate(0,0)"/>
<path d="" fill="#466ED8" transform="translate(0,0)"/>
<path d="" fill="#446DD8" transform="translate(0,0)"/>
<path d="" fill="#456DD9" transform="translate(0,0)"/>
<path d="" fill="#436FD8" transform="translate(0,0)"/>
<path d="" fill="#4572D8" transform="translate(0,0)"/>
<path d="" fill="#466ED8" transform="translate(0,0)"/>
<path d="" fill="#446CD9" transform="translate(0,0)"/>
<path d="" fill="#426BD7" transform="translate(0,0)"/>
<path d="" fill="#406AD9" transform="translate(0,0)"/>
<path d="" fill="#466FD9" transform="translate(0,0)"/>
<path d="" fill="#446FDB" transform="translate(0,0)"/>
<path d="" fill="#436BD7" transform="translate(0,0)"/>
<path d="" fill="#436DDB" transform="translate(0,0)"/>
<path d="" fill="#446EDA" transform="translate(0,0)"/>
<path d="" fill="#456DD9" transform="translate(0,0)"/>
<path d="" fill="#436EDC" transform="translate(0,0)"/>
<path d="" fill="#436CD6" transform="translate(0,0)"/>
<path d="" fill="#486DD4" transform="translate(0,0)"/>
<path d="" fill="#4772DD" transform="translate(0,0)"/>
<path d="" fill="#476DD4" transform="translate(0,0)"/>
<path d="" fill="#4771DA" transform="translate(0,0)"/>
<path d="" fill="#4772DA" transform="translate(0,0)"/>
<path d="" fill="#476FD2" transform="translate(0,0)"/>
<path d="" fill="#456DDE" transform="translate(0,0)"/>
<path d="" fill="#456EDA" transform="translate(0,0)"/>
<path d="" fill="#466FDC" transform="translate(0,0)"/>
<path d="" fill="#476FDD" transform="translate(0,0)"/>
<path d="" fill="#436DD9" transform="translate(0,0)"/>
<path d="" fill="#416CDB" transform="translate(0,0)"/>
<path d="" fill="#446ED8" transform="translate(0,0)"/>
<path d="" fill="#456EDC" transform="translate(0,0)"/>
<path d="" fill="#456ED0" transform="translate(0,0)"/>
<path d="" fill="#436BDC" transform="translate(0,0)"/>
<path d="" fill="#486FD3" transform="translate(0,0)"/>
<path d="" fill="#446EDB" transform="translate(0,0)"/>
<path d="" fill="#4571DD" transform="translate(0,0)"/>
<path d="" fill="#4471DF" transform="translate(0,0)"/>
<path d="" fill="#4671DD" transform="translate(0,0)"/>
<path d="" fill="#436EE0" transform="translate(0,0)"/>
<path d="" fill="#436FDF" transform="translate(0,0)"/>
<path d="" fill="#426CDE" transform="translate(0,0)"/>
<path d="" fill="#476DD3" transform="translate(0,0)"/>
<path d="" fill="#4469D3" transform="translate(0,0)"/>
<path d="" fill="#446ED5" transform="translate(0,0)"/>
<path d="" fill="#456CD4" transform="translate(0,0)"/>
<path d="" fill="#456CD4" transform="translate(0,0)"/>
<path d="" fill="#456BD5" transform="translate(0,0)"/>
<path d="" fill="#446BD3" transform="translate(0,0)"/>
<path d="" fill="#4872D4" transform="translate(0,0)"/>
<path d="" fill="#466ED7" transform="translate(0,0)"/>
<path d="" fill="#466ED5" transform="translate(0,0)"/>
<path d="" fill="#4468CA" transform="translate(0,0)"/>
<path d="" fill="#456BD3" transform="translate(0,0)"/>
<path d="" fill="#436DD3" transform="translate(0,0)"/>
<path d="" fill="#456CD3" transform="translate(0,0)"/>
<path d="" fill="#456ED5" transform="translate(0,0)"/>
<path d="" fill="#456DD7" transform="translate(0,0)"/>
<path d="" fill="#496ED2" transform="translate(0,0)"/>
<path d="" fill="#496ECA" transform="translate(0,0)"/>
</svg>
